/* XPM */
static char *_d417be75927444bc5d63399d909b7b0Jsv1IGVxcBrruZra[] = {
/* columns rows colors chars-per-pixel */
"80 80 130 2 ",
"   c #64615C",
".  c #63605B",
"X  c #54514C",
"o  c #595651",
"O  c #5F5B56",
"+  c #54504C",
"@  c #4E4A46",
"#  c #504D49",
"$  c #605D58",
"%  c #56524E",
"&  c #5A5752",
"*  c #5E5B56",
"=  c #4F4C48",
"-  c #504D48",
";  c #5C5854",
":  c #514E4A",
">  c #55524E",
",  c #5D5955",
"<  c #56534E",
"1  c #57534F",
"2  c #605C58",
"3  c #55514D",
"4  c #54514D",
"5  c #53504C",
"6  c #696561",
"7  c #5D5A55",
"8  c #524F4B",
"9  c #5A5652",
"0  c #615D59",
"q  c #67635E",
"w  c #65615C",
"e  c #585450",
"r  c #504C48",
"t  c #4E4B47",
"y  c #5B5753",
"u  c #615E59",
"i  c #5F5C57",
"p  c #595551",
"a  c #575450",
"s  c #514D49",
"d  c #56534F",
"f  c #5F5C58",
"g  c #68645F",
"h  c #686460",
"j  c #67635F",
"k  c #67645F",
"l  c #625E5A",
"z  c #64605C",
"x  c #66635E",
"c  c #696560",
"v  c #66625E",
"b  c #585551",
"n  c #5B5853",
"m  c #524E4A",
"M  c #5C5954",
"N  c #686560",
"B  c #6B6863",
"V  c #6E6B65",
"C  c #706C68",
"Z  c #696661",
"A  c #65625D",
"S  c #6C6863",
"D  c #716D68",
"F  c #5C5955",
"G  c #4F4B47",
"H  c #5A5753",
"J  c #6E6A65",
"K  c #6F6B66",
"L  c #4D4A46",
"P  c #5F5B57",
"I  c #6D6A65",
"U  c #706C67",
"Y  c #57544F",
"T  c #534F4B",
"R  c #6A6762",
"E  c #65615D",
"W  c #726E69",
"Q  c #736F6A",
"!  c #595652",
"~  c #6D6964",
"^  c #67645E",
"/  c #6E6A66",
"(  c #6E6B66",
")  c #514D4A",
"_  c #625F5A",
"`  c #585550",
"'  c #6C6964",
"]  c #514E49",
"[  c #524F4A",
"{  c #716D69",
"}  c #4F4C47",
"|  c #635F5B",
" . c #6B6762",
".. c #6B6763",
"X. c #6A6661",
"o. c #716E69",
"O. c #74706B",
"+. c #5E5A56",
"@. c #706D68",
"#. c #635F5A",
"$. c #5B5854",
"%. c #4C4945",
"&. c #55524D",
"*. c #6F6B67",
"=. c #6A6662",
"-. c #615E5A",
";. c #615D58",
":. c #625E59",
">. c #66625D",
",. c #53504B",
"<. c #64605B",
"1. c #65625C",
"2. c #64625C",
"3. c #605D59",
"4. c #55514E",
"5. c #5D5A56",
"6. c #4F4B48",
"7. c #595550",
"8. c #5E5B57",
"9. c #4E4A47",
"0. c #6D6A64",
"q. c #6F6C67",
"w. c #5D5954",
"e. c #5A5651",
"r. c #4C4A46",
"t. c #56544F",
"y. c #5E5C57",
"u. c #5E5A55",
"i. c #4E4B46",
"p. c white",
/* pixels */
"  . X o . .                                       . .   O + @ # $                   % & . . . . . .                                       * = - $               ",
". ; : = > ,                                     . < 1 2 * % 3 4 5 $                 6 7 8 8 X o 9 9 0                                     q w = 8 $             ",
"  0 e r t : > y y y u i y p a .                 . 1 s d 9 1 1 % = f                 g h j k l s # % 9 $                   u , z           x c k v b i           ",
"    n + 8 8 m : : % y d s + M .                   i 8 = : : : s t 4 $                 N B V C 0 = # 3 *             i M M , i         Z Z   A S D 4 F A         ",
"  2 7 , 7 n % : t : % : t a                         a t G : # t d M H $                   x J K m L + P $ 7       i p 9 M P           I h i Z x U l n $         ",
". Y M $ $ M + T t L m # : 9 $ $         x k       0 9 : : 1 % d . U u H $             l l   k J : L + y o o     z , y $               R E 7 k R W Q p !         ",
". < + 3 3 5 = = = = = = m 3 > e $ l . x ~ U k   u p 1 : : e ; . A U D ; Y             , ,   ^ S > t 8 # Y                               B q + Z S D p !         ",
"  . d t L # % d 1 e e 1 T t # % d 1 * N / ( B 0 e % % s ) y .   x K Z Y Y             M ; .   A _ : L L `                             A ' c : = ] g b o z       ",
"    _ Y t # 1 1 e $ . M 1 1 3 = G t = : 5 5 5 [ # # # = 8 y   A ( N   d Y             , 1 ; .   . 8 L m ;                       A A A S W { v } L : 3 1 7       ",
"      c * # 1 e $     | u l i % 3 G L a    . . . .....S P >     q   a t a             , 1 e ; z . e = 8 e ,                   A K U U D Q Z + t + 3 % 1 e ,     ",
"      I | r p $             . $ i : a u q Z Z Z X.o.O.O.( 0 ` _ ; y : # n           +.p 1 1 o .   0 e : T e y M .             x @.P p p o > L t % 1 7 y 1 e , . ",
"      I #.r 9 z               . o ! u           A U Q ( K k # n 1 8 t 8 ,           y 1 1 p i       n ) t T 1 1 M .       A _ b $.# > & X %.L t % , . , 1 1 o . ",
"      I #.= o .               _ X $             A U K k B k t 8 8 t r e $           y 1 1 y   A Z A y + = # 1 1 1 , P M & & o Y d a $ A M r L t 1 l   $ 9 ` *   ",
"      ~ _ : ,                 . , _             N ~ k   Z E # L L L + P             +.p p +.A R D k +.p + : + + + + + r %.= d $ N A     $ e r t 1 l     $ +.    ",
"    x K _ X                                 A N D k       $ 3 L L = 4 *               M M   A B W k _ n 1 + @ = = @ L t # ` u ,  .c k A   $ 3 G d i .           ",
"    J D 0 &._                               k D *.x       $ 3 t t 3 1 *               7 7 A _ e  .x n 1 1 5 # e a = @ + , .   _ y =.W B A 0 d r 3 Y i _ _       ",
"  A K $ b M > .                             g J +._       $ a 3 G 4 1 +.              . . c U R % i y 1 T s ` _ -.8 T 7 .     | p 9 ..Q B   $ % = 3 e + !       ",
"A I W , d . $                           i ;.S +.0 .       . i d t G 4 e *               Z I g   # ] > 8 : > 9 .   $ o *       _ ` 1 =.O.~   :.1 G 3 : ` -.      ",
"K W u : Y                         , y y p 9 +.p |           l 1 t L = = p               x k   _ > t = t : 1 9 .   7 e *     _ y e v D O.~   l 1 t = t &.n +.    ",
"Q _ : %.Y                     . 7 e % 1 1 1 % e _           l 1 t L %.o 7 n               _ , M Y = L # 3 o 2   . o ; l     u p >.D J R N _ ; % t L L T 1 p *   ",
"u : %.,.7                     . e 1 P ; % 9 | <.          _ , % @ %.b ..R ; ! & n _ A 1._ ; % T 8 t # 3 1 p 2     * _     2.. i B ~ x   l ; % T : : : m 8 8 + 9 ",
"L = t < 3.. 0             . $ P ` +.J c P >.W J A         $ % 3 b ! #...D B 1 L L ! 7 7 b 5 8 L L L : % 1 1 p 2 $ .   $ 7 7 7 * .     _ ; % T : % & e T r # = L ",
"r 3 m L a u n u         . * 1 1 e ~ Q Q Q Q U A           $ 3 8 J U 7 i B U Z 5 [ 8 8 X > T L L L 5 > 3 3 3 3 3 a i $ > t = = : 7 f f 9 3 T s 1 9 _ , o 9 9 e 8 ",
"d 1 1 s Y   u y u | _ | +.1 1 1 y J Q Q W o.K A           $ 3 8 J N S U B A   . . . . X.U w L L T  .W 2 : 8 : G 3 % ] t m 1 e a 5 = t t t : 1 9 _     . . . . . ",
"e 1 1 : Y     u & p 9 9 p e e y ~ W W W ~ x A             $ 3 8 J k A x A             A x 7 L 8 R W W U J ( h s t = t m % y _   B > L L s % o _                 ",
"0 p 1 : Y       l u Z ~ ~ ~ ~ J W X.k k x                 $ 3 8 J k                     M # 5 6 N k k k k B W h [ n 5 t 8 y   x D ~ d %.: 1 9 .         i ,     ",
"  0 9 s Y           g Z Z Z Z Z N A                       $ 3 8 J k                   n 5 d i N           A c Z q b = s 3 y x I X.D o # > 1 9 .       i , u     ",
"    y + 4 $.                                            u y 3 = M . A F F             9 1 $                   A c ,.# 4.y $ >. .' W ! = + 1 9 z     P p M       ",
"    i o + + & n .                                     u y 1 3 L L a & ` F           $ 7 $         i _           . & + 8 < ; i x D >.5 %.= + p P     P M 2       ",
"      i p 3 # : $.7 i $ _                 . i * .   u y 1 1 3 @ L L : 5.            +.$     . $ 2 M u _ l           ! # L 6.&.5.  4 r t L = + 3 P .     x g     ",
"        2 p 1 % t L T 3 H l u u l       . +.4 4 2 u & 1 1 1 3 L L : *                     . $ & & 2 u , *             Y %.t 8 8 8 e e 8 t t = r 3 u   x =.R     ",
"  _ _ . . * 1 3 t t t L : 1 1 d 1 $ . _ , 5 [ i p e 1 1 1 % + t # i                       $ 9 u u p e i               a L < . . . . ; 1 8 # 1 1 8 $ A B E ;     ",
". > > P P e 3 G } + # L t t t t G % e 5 = t # e 1 1 d 1 T t t = i                         i 1 e e s M               . Y d _         . M 8 r p _ _   I w 7.n .   ",
"  $ X 3 p 4 G = 7 p % 3 : L L L L G = t L = 3 1 d s = = t L L # u                       i p 3 = = + i               a ! _             , 8 L 5 .     K | y i ; . ",
"    4 t # = # 7 . u $ y 8 L L t T + + # L t # # r L %.L L L L t 4 u                   i p 3 = L L 3 9 $             i u               p : : [ .     K c l . 0   ",
"    ` = %.] M         u d t : = , P p + 8 # = H :.| | < %.L t 5 o ` $ 7 F           i o 4 m 8 8 8 : s a $   | +..                     8.p + 8 .     c k         ",
"  i 9 : : $.            8.o H 5 ! _ i , , y & A ' I W g % t T e 7 # > ` F           y 4 r r p | | ! Y X Y * +.7 .                     2.P 5 8 .                 ",
". 9 3 + $.                  u 3 &.u                 B W h Y + + + 4 4 7             n s 9.3 #.J J x   n 1 y ,                           $ d 8 .                 ",
"u y s &                     $ > _                      .W j L t 8 $                 9 T 3 ;.~ A                                           F : i                 ",
"9 u 4 &                       .                          .v L - $                   4 ! .   A                                             7 L ] -.              ",
"| . 4 !                                                 A 8.t # -.                  4 &                                                   F L ] -.              ",
"    4 + *                                                 . $.: u                   4 !                                                 2 > : i                 ",
"    i > 4 *                         +.$                     A w a u                 4 ] a +.                                  . ; % p $ P 5 8 .                 ",
"      i > 4 , , 7 .         . +..   1 Y $           R N     k J 8 i                 4 %.s y                        .~ N     . ; T 8 y +.& 5 + X.A               ",
"        l 9 m T 1 , * _ _ 7 H 7 .   n + Y $         K E 0 B 0.J ,.i               Z ! t : , Z                 w R W ..l u A u T t 3 M & 1 5 > q.x               ",
"        Z N d t 5 % 1 M y 8 4 .       n 1 +.        B _ P q X./ ,.i             A U 2 s s 2 U A             A X.W S w.% y i ! L L 3 1 1 1 5 > K x               ",
"          Z ~ > t T % 1 T = a u l                     B   3 & x 8 i             A U 2 m : , S k w       A k X.W ~ ; 1 1 % 5 # [ 8 4 3 % % m > q.x   x . u       ",
"          N D I > m 3 1 5 t = % 1 $                   A B W =.# t i             A U 2 % 8 # ; ... .     R W W ~ y 1 1 d 8 # p _ _ 5 @ 8 8 L 4 S k _ R F `       ",
"            c W K J b 8 % T L G = % $                  .U W X.= t i             A K ;.1 T L = : : $     B Q ~ y 1 1 1 8 L r p . . e = t = t t &.=.d : 4 M       ",
"            k W Q Q o L = = = 3 3 # % i             ' 0 4 > > + = i               q S 0 8 L G 5 = i    .W S ; 1 1 1 1 : L t : p p : t a $ & L t + = m ; .       ",
"            A X.W Q o %.b   * P e 4 : 8 M i ` . A ' $ : 5 7 $.% t 5 i               K <.8 L = 1 M d i I  .w.1 1 1 1 1 s b g _ : # & 7 u A _ n 5 L L + e.i       ",
"              A U l : b  .K A _ 5 : 8 = : X [ _ o ; : 5 i A . 7 + t 7 A             <.; 3 s = e _ M 3.I q % 1 1 1 1 1 s +.W g n H _ A       . * & 4 : 4 o i     ",
"          3.7 B U 4 5 g D S k ! [ : 3 + = r.- o a d Y i       . e = < $             y 9 & + = e |     Z c P 1 1 1 1 + t 5.K                   A   9 T m + y     ",
"          $ ; h U > F R S  .6 d & n n p T L t > _             | e = %.&           0 M $ $ p 4 % _       Z k 1 1 1 1 # 5 | B                 . $ 2 ; e T : p     ",
"          N N T v + F   Z '         _ ; 8 = ` .               | e = L H 1.      . ; 0       $ &.2       . * 1 1 1 3 = _ ~               _ $ i e 9 _ , e 8 4     ",
"          w u 8 = t M     A       . y d 5 n ~ A               | e # L b .         .           _ y _     P 1 % % > : = | '             . ! m e 9 _     , m 4     ",
"            x =.: L 3 i       . . y 1 8 7 S >.                | p % # t b .                     .       +.4 # # # * _   A           . b 8 % 9 _       , m 4     ",
"            g J 8 L + *     _ 9 o 1 : P =.x                     u p % # } a                           * 4 `  .X.u .                 a 5 % & _         , 8 4     ",
"          k U W g 8 G d y * $ : # # 2 K ~                         0 9 3 # 4                       , d : 9 h Z c A                   4 8 1 y           _ a 4     ",
"    A 7 t.o +.+.7 s L = # T &.L t * K K g               u P         y 1 8 # &                 . , 5 L %.* K                         4 8 9 $           A & 4     ",
"& & & 3 s s s # L L L d * ! : s = S U k             1.y.` y         y 1 3 r = ! n _ A u * * * u.1 6.b + 7 K                         4 m ,               & 4 _ n ",
"L = r < n n & % s @ = u W S y d 8 l A             8.7 > 8 y       0 9 3 5 : L %.L ! 7 a 5 3 1 1 4 4 q #._ B                         ! &.,               & 8 ! L ",
"8 e 9 i     _ 9 1 s T ; N ~ l Y 3 > f           . 8 t + e ,     . 9 > 3 &.> 4 8 8 8 8 8 8 T 3 + = i    . .                            +., _             & L t : ",
". . .         _ 9 1 # 8 M . i % X 6 N           u 8 + e 7       . 9 # u W D ~ . . . . . . * : t t f                                     P M             & %.: -.",
"                _ 9 : t T > # + X.g           _ ,.3 1 +..       . 9 r _ O.( x             N g = t 8.          .                         . .             & L 5 . ",
"                  _ $ > t t 5 6 N A           _ 1 1 * .         . 9 r _ ( x               Z  .= L : 8.      $ > _                                     * + 1 Z   ",
"                      $ l 8.> D ( x           _ p * .           . 9 3 d *                 $ ; A 7 # 7 1.  i 4 + &.u                                 * 4 9 h N   ",
"          k  .          S g s i D K k         . i .               2 9 s d                 3.7 X.A M ` i i 5 G 1 & _                                 a 9.* q.    ",
"          k ' R A     k q.g t T $ #.                              2 e.s Y                           4 4 4 t + , z                                 i 8 %.n R     ",
"            k D x   k K K 2 m % # r o 7 $               u i       9 3 = Y             _ _           4 %.L # 9                         $ * u     . 9 # t o       ",
"            q ( N k q.K +.: o 9 9 o : L > f i $     u f ! a     i 1 = = &             n n           4 t = s a u             . $     u d 5 7     . e = : & _     ",
"    A . _     x D W Q P 9.&.. . . . 4 %.= # t # i u 4 = o .   i # L = H               Y d .         4 m 1 + # Y $ u _ .     $ 4 f u 4 8 M       l 8 t t m ;     ",
"    ~ i o   A x D W D , # y       . &.i.Y $.t } : [ t b _ . i ] = = M .               Y : M       . X 8 1 1 3 # : : % *     . 8.[ # t T ,     _ p = T : : y     ",
"    x X.2 n U @.D n 4 3 & _     . < n f _ . i u X. .d & F [ ] : g ..x                 Y s y     . > t T 1 & u f i i 4 # &   $ 8 t T 3 % ,   _ 9 1 = + % 8 %     ",
"      J _ b Q D $.= : 3 ,         * _         A Z o.B M # %.8 k W B A               * ,.t 5 , _ > t ` i $ u         i | P 4 8 L L 3 1 1 p y & % s t + M y % , . ",
"      $ 2 u +.M 5 8 > y u                         Z B x #.n > D B A                 y : L t 8 a 0 |                   c . F +.t L # s 4 1 1 % : L : y _ _ * i   ",
"      d < 7 s : 1 ; , u                               Z D k > q.x                   n : L %.- * B I k                     X.S t L & +.1 8 T 8 : m y _           ",
"      Y = d y y ; _                                     Z <.4 S A                   o = 8 o +.' A                       x N z 9 & R Q E 5 %.= 1 n _             ",
"    u a !                                                 7 : i                     4 = i U I A                         X.k n J K q S @.| # G < _               ",
"    > !                                                   7 L : -.                  4 o   A A                             c J >.A   A A   M L # -.              "
};
