/* XPM */
static char *_f82a342a5ec45d2e31ad5732492eb98arh3WrwlvjaUVWfd[] = {
/* columns rows colors chars-per-pixel */
"79 44 193 2 ",
"   c None",
".  c #1D1616",
"X  c #291D1E",
"o  c #2D2423",
"O  c #322626",
"+  c #3A2826",
"@  c #362B2B",
"#  c #3C2C2C",
"$  c #3B302F",
"%  c #3B2D30",
"&  c #3D3232",
"*  c #432D2D",
"=  c #45322F",
"-  c #49312D",
";  c #442E31",
":  c #453434",
">  c #493535",
",  c #473936",
"<  c #4B3936",
"1  c #463639",
"2  c #4B3739",
"3  c #463A3A",
"4  c #4B3A3A",
"5  c #513C36",
"6  c #533D3C",
"7  c #5A3D3D",
"8  c #54413E",
"9  c #59413F",
"0  c #543F41",
"q  c #593F42",
"w  c #4D4142",
"e  c #544342",
"r  c #5B4442",
"t  c #574943",
"y  c #554A4A",
"u  c #5A4B4A",
"i  c #594746",
"p  c #5A524F",
"a  c #515051",
"s  c #5A5656",
"d  c #5F5959",
"f  c #634545",
"g  c #624A45",
"h  c #644C4B",
"j  c #6A4D4D",
"k  c #6A4B46",
"l  c #605043",
"z  c #65534B",
"x  c #6B514D",
"c  c #72534E",
"v  c #735C4E",
"b  c #6C4E51",
"n  c #635353",
"m  c #6C5453",
"M  c #675950",
"N  c #6C5B54",
"B  c #665C5C",
"V  c #6B5B5B",
"C  c #735555",
"Z  c #795655",
"A  c #745955",
"S  c #795A57",
"D  c #755759",
"F  c #765A5A",
"G  c #7A5C5B",
"H  c #7A565A",
"J  c #75604F",
"K  c #6E635D",
"L  c #746255",
"P  c #76625C",
"I  c #7D635D",
"U  c #7C6B5E",
"Y  c #7C5F61",
"T  c #6C6060",
"R  c #6D6A6A",
"E  c #656263",
"W  c #756565",
"Q  c #7E6362",
"!  c #7E6D66",
"~  c #746D6C",
"^  c #796A6A",
"/  c #75716F",
"(  c #7C716F",
")  c #777071",
"_  c #7B7473",
"`  c #82625C",
"'  c #88645E",
"]  c #84735D",
"[  c #836562",
"{  c #8A6664",
"}  c #856A64",
"|  c #8A6B66",
" . c #8A6668",
".. c #856C69",
"X. c #8C6D6A",
"o. c #916D67",
"O. c #916F6B",
"+. c #8C7366",
"@. c #8C7965",
"#. c #8D726C",
"$. c #8C7C69",
"%. c #93736D",
"&. c #9A766E",
"*. c #947B6C",
"=. c #987D6E",
"-. c #907B66",
";. c #847777",
":. c #8D7371",
">. c #847975",
",. c #847D7C",
"<. c #8C7E77",
"1. c #957572",
"2. c #997673",
"3. c #967A72",
"4. c #9A7A74",
"5. c #9A7678",
"6. c #9B7D79",
"7. c #947C78",
"8. c #A17D7C",
"9. c #97826F",
"0. c #85817F",
"q. c #968272",
"w. c #9B8273",
"e. c #93837E",
"r. c #9B847A",
"t. c #9F897C",
"y. c #9E8C77",
"u. c #A2857C",
"i. c #A58D7C",
"p. c #A88E7D",
"a. c #A6927D",
"s. c #AB957E",
"d. c #AC9B7D",
"f. c #A19073",
"g. c #B59C7F",
"h. c #ADA17B",
"j. c #B1A17F",
"k. c #877F80",
"l. c #8C8485",
"z. c #8D8987",
"x. c #8D8689",
"c. c #8A8889",
"v. c #9B8787",
"b. c #928986",
"n. c #938B8C",
"m. c #9B8D8A",
"M. c #978A86",
"N. c #9F918C",
"B. c #979396",
"V. c #9D9594",
"C. c #9E979A",
"Z. c #9D989C",
"A. c #A58482",
"S. c #A59382",
"D. c #AC9384",
"F. c #AE9B82",
"G. c #AF998B",
"H. c #B09687",
"J. c #B29D84",
"K. c #B2948B",
"L. c #B49C8A",
"P. c #A39C9B",
"I. c #A89B95",
"U. c #B39D93",
"Y. c #B99F92",
"T. c #AFA081",
"R. c #B4A385",
"E. c #B9A586",
"W. c #B6A986",
"Q. c #B8A987",
"!. c #B5A38A",
"~. c #B9A68A",
"^. c #B9A58C",
"/. c #B7A889",
"(. c #BDAA8A",
"). c #BBA98B",
"_. c #A7A29F",
"`. c #BBA590",
"'. c #BCA992",
"]. c #ACA2A4",
"[. c #ADACAC",
"{. c #B2AAAE",
"}. c #B9ADAF",
"|. c #B0A3AA",
" X c #B5B1AE",
".X c #BAAEB0",
"XX c #C2AF8F",
"oX c #C0A697",
"OX c #C2AD95",
"+X c #C1AA9A",
"@X c #C9B49E",
"#X c #C1B092",
"$X c #C9B9AC",
/* pixels */
"                                                                                                                                                              ",
"                                                                      l.B.n.                                                                                  ",
"                                                                {.|.}.s 3 T .X]._.                                                                            ",
"                                                              b...z L y.F.9.L l ^ V.n.B.                                                                      ",
"                                                          _ ! M =.~.XXQ.R.Q.XXJ.$Xt.U M $.0.,.V.                                                              ",
"                                                      _ P L $.^.OXW.s.(.d.j.XXJ.g.W.!.R.] @.U N n.                                                            ",
"                                                    _ e I Y.^.J.F.W.^.F.!.J.R.J.R.R.^.J.$XL.6.[ B                                                             ",
"                                                    ^ G u.%.=.u.R.d.R.W.W.W.h.E.!.!.-.] %.S > q & C.                                                          ",
"                                                  ) r #.*.` %.1.%.%.D.D.J.'.J.j.7.I r : < < : < 1 4                                                           ",
"                                                  ~ r 6.X.%.1.1.4.%.%.%.-.i.@Xa.6 5 > 1 1 < 1 1 1 e n.                                                        ",
"                                                  ,.q X.O.%.2.1.1.%.*.#.+.=.+X@.# ; > < 1 1 1 < , = y                                                         ",
"                                                  T X.G c %.1.2.%.%.4.%.1.X.u.} 0 4 < < : : < < 1 1 w ,.                                                      ",
"                                                B > 1.X.X.4.%.%.2.%.2.%.3.1.1...0 1 : 1 1 < 4 > , 4 + B                                                       ",
"                                                ;.6 X.7.3.3.%.5.O.2.%.4.O.X.1.| r 1 : < 1 1 < > : 2 < < _                                                     ",
"                                          ,.z M 8 j G | %.%.1.%.%.%.%.%.[ [ 1.{ m 8 > 4 < : 1 2 1 6 4 # /                                                     ",
"                                    l.~ 3 N :.%.7.3.u.{ } 6.%.6.6.&.%.4.X.X.{ [ F 9 - < < 1 2 2 2 2 1 # >.                                                    ",
"                              z.S.4 f ` 9.J.~.W.!.W.W.R.R.R.R.R.W.f.&.%.5.1.} S H 7 , : < > 8 1 2 ; 1 : ^ b.R                                                 ",
"                          0.V.e ! r.^.OXg.W.d.W.R.!.R.!.!.R.R.R.R.^.i.w.1.1.X.C G g : 1 > : # > r x i F <.N t e.Z.n.                                          ",
"                        V.8 t U.).^.R.d.Q.j.^.!.R.R.R.R.W.!.E.W.R.J.(.R.i.u.G G C P 0 : 5 D x x -.J.a.a.^.'./.] N z e.>.,.                                    ",
"                      ].u [ #.u.a.^.R.E.W.R.F.!.R.R.R.!.R.R.R.!.R.R.j.Q.W.i.C C P D 6 4 ! G.F.s.R.(.E.E.~.R.W.R.#Xd.@.P P 0.                                  ",
"                    P.0 ..1.%.%.3.=.a.^.R.W.^.g.R.R.!.R.R.!.W.!.R.Q.h.h.).S.A b j C C [ r.!.!.Q.E.d.j.R.d.W.j.W.J.E.Y.D.i m.                                  ",
"                    V.6 G ` &.&.1.%.4.*.F.R.R.R.R.R.R.R.R.R.R.R.!.F.W.R.^.t.C m D Y G X.w.J.J.R.R.).W.T.R.^.!.!.`.4.} 5 r y Z.                                ",
"                    m.r [ Z O.1.%.4.1.%.%.F.R.h.R.R.R.R.W.R.R.R.R.).J.^.i.C F h > h ` %.3.*.*.u.G.J.W.Q.R.F.!.3.! 6 : > : : 1 B.                              ",
"                  k.0 X.1.1.4.%.%.O.2.5.%.*.d.W.R.R.!.R.R.!.R.W.R.J.H.3.j 6 Y h , [ 8.o.%.%.1.5.%.s.F.J.).9.I r = > 1 < < 1 4 I.                              ",
"                  ].- #.4.1...1.%.4.%.2.%.3.3.K.R.Q.(.^.).p.K.D.1.A Q C < 4 Y D G X.X.%.%.%.%.2.&.+.&.K.3.f 1 1 1 , > > > - < < [.                            ",
"                  ( m { ..| X.O.%.1.%.2.2.1.%.*.d.i.-.w.u.} I | g * * < : e G C O.G C %.4.4.%.1.%.2.%.1.} 5 $ : 1 < 2 2 > > 1 4 P.                            ",
"                  1 | O.S O.1.%.1.%.1.%.%.1.*.| t.3.k c [ Q C C m 6 < 4 : < m G 1.X.| 2.%.%.%.5.1.7.1.1.%.i < 0 4 < > 1 < 1 1 : 4 {.                          ",
"                E 4 X.6.X.1.%.2.1.%.2.2.1.1.4.} G } C S G Q H G F r < 1 : * r | %.1.5.5.1.%.4.%.1.1.%.1.%.r ; 1 < ; 4 2 : 3 < : < b.[.                        ",
"                ~ 4 Z { 6.[ X.%.%.%.2.2.%.%.1.G C F G Y S D D H Y i ; 1 4 1 g 1.4.&.1.O.2.%.+.%.%.=.&.=.} x 4 1 2 1 1 : < 1 : 6 5 < K a _.                    ",
"                / e I { 6.O.4.&.4.1.O.%.1.4.X.S G C C C H D G D G D q 1 3 : e X.%.4.1.1.1.=.4.D.J.L.H.F.3.#.x = > < 1 : 4 : > } D.S.a.$Xm.P.                  ",
"                R 4 ..%.X.1.2.o.1.1.%.O.%.3.[ S C C G F F D G D D S q > 1 4 r [ %.%.%.%.o.p.H.~.R.E.^.R.J.F.*.J 7 - 4 4 : < S K.~.^.R.#XD.9 z.                ",
"                R : ..4.%.1.3.%.X.%.%.%.2.%.S D S G G C S G C G H G r 1 1 ; 0 [ 3.%.2.%.I 3.F.d.~.d.R.E.Q.R.R.(.e.8 < < * m 3.%.f.R.XXg.!.z  X                ",
"                / 1 ..%.%.1.O. .{ %.2.1.1.5.D F G D S D S C G H S F F 4 3 4 = n %.1.1.{ [ [ 1.6.!.W.R.E.R.^.H.a.I 4 > 1 > h 1.{ S 3.A.X.N e b.                ",
"                R 8 ..3.%.5...[ 4.4.%.%.3.[ C G C F F C G D F F F C F 6 : = < 9 %.1.%.[ 1.#.%.%.w.!.^.~.F.a...z 6 < 1 4 1 ; u A F C C f * : &                 ",
"                R 8  .5.1.m 4 e A #.1.3.1.S G A G C G G F F G j k G D 5 L A P G v %.z 6 m ..1.%.#.w.u.i...g 1 ; : 2 > ; e e * t F G Q G 6 1 3                 ",
"                  & h O.{ 2 1 < < u G 1.#.S G D G F C C G F j r C { X...J.J.!.D.p.+.< 4 ; h 4.2.4.1.X.C 6 > 1 0 4 1 6 C :.} 6 ; 6 C m h 6 1 ,.                ",
"                    v.S X.r < : : = 6 j Y G D F D f b F D Y n 6 ..[ [ +.J.E.j.~.oX3.8 : ; r | %.%.O.1.x : 1 4 1 1 > 9 1.6.X.` q 4 i y 3 )                     ",
"                  / N :.:.Q 2 2 1 4 2 - m Y C S Y F C Y Y b ; : F ..6.p.D.E.R.h.q.8 , 3 4 : b r.1.{ } b 2 : : 4 1 : g ..X.6.k.Z w                             ",
"                ,.i :.[ | 6.Q 5 2 2 < 1 h V C Y C h b D F C 0 r C X.G v q.H.q.P r : < : 4 1 7 Q 5.:.m > < < 4 < 6 < < m Q N ` f ~                             ",
"                > G Z ' O.[ 1.C 2 1 : 4 1 Y Y C u r q h G G h m G { | { O.1.Q * 1 < : 4 : 1 < 2 k 1.Q 4 4 # % + + + % x.B.^ >.:.                              ",
"                W i Y [ 2.%.1.C > 5 4 O X O O : X.8.[ 6 + O X : g X.1.4.2.1.S - > 2 : > 4 1 1 ( n.V 1 # @ B ) s a                                             ",
"                  B O : > ; = O o o .           # < & o         M D 6.1.` r.W = 4 < ; 6 : 4 o /   _ k.l.)                                                     ",
"                                                                  y 1 < 1 3 & @ O @ @ @ & o d                                                                 ",
"                                                                                                                                                              "
};
