/* XPM */
static char *_1f86e197e9d4ce1e0c5d546e52132fapK4ot4NJ2trRGL16[] = {
/* columns rows colors chars-per-pixel */
"30 30 149 2 ",
"   c None",
".  c #3E3F27",
"X  c #4F3B20",
"o  c #403F29",
"O  c #4F3F35",
"+  c #5F3637",
"@  c #563A34",
"#  c #5F3C3D",
"$  c #7C2F24",
"%  c #7A2F2E",
"&  c #7C3025",
"*  c #77322F",
"=  c #613636",
"-  c #613738",
";  c #633D3E",
":  c #733132",
">  c #7F3231",
",  c #154C17",
"<  c #1C4A17",
"1  c #175017",
"2  c #185217",
"3  c #1B5319",
"4  c #175A1B",
"5  c #1A5C1B",
"6  c #24451A",
"7  c #254B1B",
"8  c #3B461C",
"9  c #1C641E",
"0  c #394025",
"q  c #225123",
"w  c #275228",
"e  c #29552C",
"r  c #2C5E2D",
"t  c #3C5323",
"y  c #3D5824",
"u  c #1D6620",
"i  c #1E6D21",
"p  c #226B22",
"a  c #227523",
"s  c #237B25",
"d  c #2F6131",
"f  c #3D603D",
"g  c #4D4C20",
"h  c #594D38",
"j  c #664142",
"k  c #674A4A",
"l  c #6B4A4A",
"z  c #6D585A",
"x  c #7C5151",
"c  c #795A5B",
"v  c #8B2726",
"b  c #872728",
"n  c #862B2A",
"m  c #8C2B2A",
"M  c #932726",
"N  c #9B2727",
"B  c #952927",
"V  c #992826",
"C  c #922728",
"Z  c #952B2A",
"A  c #9B2829",
"S  c #853028",
"D  c #91372E",
"F  c #98392D",
"G  c #862E30",
"H  c #8C2F30",
"J  c #843333",
"K  c #8B3333",
"L  c #843D3F",
"P  c #8B3939",
"I  c #903030",
"U  c #9B3233",
"Y  c #AE2626",
"T  c #A02927",
"R  c #AC2927",
"E  c #AE2728",
"W  c #A02D2D",
"Q  c #AC2A29",
"!  c #B22627",
"~  c #BC2627",
"^  c #BD2827",
"/  c #B32628",
"(  c #BE2628",
")  c #B32B2B",
"_  c #BD2B2A",
"`  c #A83526",
"'  c #A03E2F",
"]  c #AD3031",
"[  c #B53932",
"{  c #C32B2B",
"}  c #CC2A2A",
"|  c #D42B2B",
" . c #DD2D2C",
".. c #DF312E",
"X. c #C33331",
"o. c #E12E2D",
"O. c #E2312E",
"+. c #E23432",
"@. c #E63832",
"#. c #E33D3A",
"$. c #B74033",
"%. c #E4413C",
"&. c #EB453B",
"*. c #ED493D",
"=. c #884445",
"-. c #934344",
";. c #9F5C5D",
":. c #BD6B55",
">. c #956363",
",. c #DD5342",
"<. c #DF5949",
"1. c #E64743",
"2. c #E64C45",
"3. c #E84944",
"4. c #E64E49",
"5. c #F04D41",
"6. c #E55844",
"7. c #E85946",
"8. c #E7544B",
"9. c #E8544D",
"0. c #E95A48",
"q. c #F35544",
"w. c #F65A47",
"e. c #F65E48",
"r. c #F95F4A",
"t. c #E95A52",
"y. c #CB6757",
"u. c #DF655A",
"i. c #F7634D",
"p. c #FA634C",
"a. c #EA655A",
"s. c #ED6C5E",
"d. c #F66652",
"f. c #F86550",
"g. c #F66855",
"h. c #F16E5E",
"j. c #EC6E62",
"k. c #E97363",
"l. c #EF7061",
"z. c #EE7163",
"x. c #ED7165",
"c. c #ED7365",
"v. c #ED7366",
"b. c #EB7467",
"n. c #EC7466",
"m. c #ED7467",
"M. c #EC7365",
"N. c #EC7568",
"B. c #F07060",
/* pixels */
"                                                            ",
"                                  ; k                       ",
"              e w q q w         j = j                       ",
"            f , 1 i i p d     k = j                         ",
"              3 9 9 u s 5     # l z                         ",
"            h 4 s 9 , a p r h = c     =.L J J > J           ",
"          -.$ g a s 3 u s 5 . + x >.;.] Q Q R R V J         ",
"        P V _ ` 3 a 5 5 i 2 . + : Z )  .O.#.%.%.X.V K       ",
"      J Z _ +.[ g s a a 9 , 0 - : Q @.O.+.t.a.j.8.X.A P     ",
"    b B _ +.2.j.:.t 7 7 i 4 0 @ * X.i.w.@.O.+.9.j.8.{ B K   ",
"    v _ o.1.j.N.k.y.D S 8 < 6 6 X [ p.p.e.@.o.+.9.8.| Y m   ",
"    m { o.4.N.N.b.k.u.<.F $ & $ ' 0.p.p.p.@.o.o.@.+.| ! m   ",
"    m { 3.s.B.N.B.g.g.f.6.,.,.,.0.p.p.p.w.@.o.o.o.o.| ! C   ",
"    v { 9.m.B.g.g.p.p.p.p.p.f.p.p.p.p.p.r.@.o.o.o.o.| Y m   ",
"    m { 9.B.g.p.p.p.p.p.p.p.p.p.p.p.p.r.&.+.o.o.o.o.| ! m   ",
"    m { 9.h.p.p.p.p.p.p.p.p.p.p.p.p.r.*.o.o.o.o.o.o.| Y C   ",
"    m { 9.h.p.p.p.p.p.p.p.p.p.p.p.p.e.+.o.o.o.o.o.o.| ! v   ",
"    m { 9.B.d.f.p.p.p.p.p.p.p.p.p.q.*.O.o.o.o.o.o. .} ! m   ",
"    m { 2.s.n.h.p.p.p.p.p.p.p.i.*.O.o.o.o.o.o.o. .} ^ Y m   ",
"    m { O.6.n.B.f.p.p.p.p.p.p.*.o.o.o.o.o.o.o.o.} ~ ~ Y v   ",
"    n _ o.2.j.v.s.f.p.p.r.r.*.o.o.o.o.o.o. .o. .} ~ / E m   ",
"      U { +.4.M.M.s.p.i.&.@.+.o.o.o.o.o.o.o.o.} ( ~ Y Z     ",
"      K _ o.+.4.M.M.i.&.o.o.o.o.o.o.o.o.o.o.} ( ~ ~ Y m     ",
"      K A {  .+.4.s.&.o.o.o.o.o.o.o.o.o. .} ^ ~ ~ Y V m     ",
"        J ) o.o.+.3.O.o.o.o.o.o.o.o.+.o.} ^ ~ ~ ^ R H       ",
"          W } o.o.o.o.o.o.o.o.o.o.o.o.} ( ~ ~ ^ Y W         ",
"          % T { { o.o.o.o.o.o. .| | } ^ ( ~ ! E N P         ",
"            H H A } } o.o. .| } ~ ^ ~ ~ ! Y M I H L         ",
"                m I B { | { / / ! ! ! Y M v m               ",
"                    b Z M C C M M M M M v                   "
};
