/* XPM */
static char *_4b9dc7cad724188fb2725a08e35cc37JzxPmk35SXqRx8Ik[] = {
/* columns rows colors chars-per-pixel */
"80 53 136 2 ",
"   c None",
".  c #010100",
"X  c #080704",
"o  c #0A0906",
"O  c #0D0C09",
"+  c #110F0B",
"@  c #14130D",
"#  c #19170F",
"$  c #1A180F",
"%  c #171510",
"&  c #191712",
"*  c #1D1B12",
"=  c #211E15",
"-  c #242115",
";  c #282517",
":  c #242119",
">  c #28241C",
",  c #2C281B",
"<  c #322D1D",
"1  c #35311F",
"2  c #2F2B21",
"3  c #312D22",
"4  c #363123",
"5  c #393423",
"6  c #3A3529",
"7  c #3F3A2B",
"8  c #423D26",
"9  c #433D2C",
"0  c #443E30",
"q  c #46412B",
"w  c #4A442D",
"e  c #4F482E",
"r  c #524B2F",
"t  c #464031",
"y  c #4C4635",
"u  c #4E4837",
"i  c #544D32",
"p  c #544C3B",
"a  c #575032",
"s  c #5A5234",
"d  c #57503D",
"f  c #5A523F",
"g  c #665D3B",
"h  c #685F3C",
"j  c #6B623E",
"k  c #5D5541",
"l  c #635A44",
"z  c #675F49",
"x  c #685F49",
"c  c #6D6441",
"v  c #6B624B",
"b  c #716743",
"n  c #726845",
"m  c #706749",
"M  c #746A4B",
"N  c #786E4A",
"B  c #7B714D",
"V  c #756B52",
"C  c #796F50",
"Z  c #7E7353",
"A  c #7E7459",
"S  c #817654",
"D  c #867B56",
"F  c #82775B",
"G  c #867B5D",
"H  c #897E5C",
"J  c #897E61",
"K  c #8D825D",
"L  c #8D8263",
"P  c #928566",
"I  c #958965",
"U  c #988C67",
"Y  c #948768",
"T  c #958969",
"R  c #9A8E6C",
"E  c #9E916C",
"W  c #9D906F",
"Q  c #9D916F",
"!  c #9E916F",
"~  c #9D906C",
"^  c #9F9270",
"/  c #A09370",
"(  c #A29571",
")  c #A39671",
"_  c #A29472",
"`  c #A29573",
"'  c #A39673",
"]  c #A29572",
"[  c #A59873",
"{  c #A59875",
"}  c #A69875",
"|  c #A69975",
" . c #A69975",
".. c #A89A76",
"X. c #A89B77",
"o. c #A99C77",
"O. c #AA9C77",
"+. c #AA9C76",
"@. c #AA9C78",
"#. c #AB9D78",
"$. c #AB9D79",
"%. c #AC9E79",
"&. c #AC9E7A",
"*. c #AC9F7A",
"=. c #AD9F7A",
"-. c #AD9F7A",
";. c #AEA07A",
":. c #AEA07B",
">. c #AFA07B",
",. c #AFA17B",
"<. c #AEA07B",
"1. c #B0A17C",
"2. c #B0A27C",
"3. c #B6A77C",
"4. c #B6A77D",
"5. c #B2A47D",
"6. c #B7A87E",
"7. c #BAAB82",
"8. c #BDAD85",
"9. c #BDAE85",
"0. c #BAAB83",
"q. c #BFB086",
"w. c #C0B086",
"e. c #C0B187",
"r. c #C4B48A",
"t. c #CCBB8F",
"y. c #C9B98D",
"u. c #CFBE92",
"i. c #CFBE92",
"p. c #D0BF92",
"a. c #D1C093",
"s. c #D2C193",
"d. c #D3C194",
"f. c #D3C294",
"g. c #D3C295",
"h. c #D2C194",
/* pixels */
"                                                                                                                                                                ",
"                                                                                                                                                                ",
"                                                                                                                                                                ",
"                                                                                                                                                                ",
"                                                                                                                                                                ",
"                                                                                                                                                                ",
"                                                                                                                                                                ",
"                                                                                                                                                                ",
"                                                                                                                                                                ",
"                                                                                                                                                                ",
"                                                                                                                                                                ",
"                                                                                                                                                                ",
"                                                                                                                                                                ",
"                                                                                                                                                                ",
"                                                                                                . . . . . . . .                                                 ",
"                                . . . . . . . . . . . . .                       . . . . . . . . . ; 8 7 w z z z c                                               ",
"                              . . O O O O X X X X X X . .                     . . X X X X X X X X 8 h j S ;.1.;.B j                                             ",
"                              . O A L P v a s a a a a # . . . . . . . . . . . . @ i a s a s s s a , $ s B %.:.;.+.U c j j j j j j                               ",
"                              4 4 ^ ,.1.H j j c j j j < # $ $ $ X . . X # $ $ # ; j j j s i i i r * X s B E ` [ X.R b b B B B B N                               ",
"                            P / X.&.,.&.D j j j j j j g g g g h - . . * g g h g g j j j = . . . . . X s j j S Y I H j D O.O.O.O.I j j j                         ",
"                            P R / K K K B j j j j j j j j j j j q 1 < 8 j j j j j j r 1 9 t t t t * X s c j M S B S H R :.=.@.` P Z Z B n                       ",
"                            P Y P n j j j j j j j j j j j j j j j j j c j j j j j j 5 X z Y Y Y T 6 X s j h j j j N O.:.=.=.O.Y P P P L c h                     ",
"                            P 1.w.3.3.3.K j j j j j j j j j j j j j j j j j j j s * 7 v J Y ' } } F v c i * 8 b S P @.:.=.=.O.T P P P J 3 $                     ",
"                            R 9.f.f.s.s.E n j j j j j j j j j j j j j j j j j c i . 9 T T R @.,.=.~ L N a @ 4 s G U @.=.=.O.} Y P P P G # .                     ",
"                    j n L X.t.p.s.s.p.s.0.` M j j j j j j j j j j j j j j j j b i X 7 Y ' @.,.&.&.~ P L S g < O M R :.:.:.~ P I Y Y Y G % @ g j j               ",
"                    j n L O.s.s.s.p.s.p.9.@.K B j a q c B j j j j j j j j i 8 q 1 . t ~ } ,.@.,.&.R P Y J B 5 X l G P R ` T J l k k A J y u S B j               ",
"                  j j c L O.p.p.p.p.p.s.0.@.,.~ b 4 . v K c j j j j j j j , . . . . u :.,.&.,.&.,.W P P P P 0 . r c j B Y Y A O . . d T X.=.=.                  ",
"                  I I U ` } X.r.g.s.t.0.7.@.^ F , 9 k / 3.;.+.+.E H 4 q I A v l t . u :.@.,.@.,.&.R L P P T 0 . M K c i 3 4 6 d l v L '                         ",
"                  :.:.:.:.` Y 7.p.i.r.@.@.} L z O y R w.g.g.g.s.0.^ % 2 %.:.:.R V O p O.@.:.@.@.@.R Y L P P y + J [ M 9 O O * J / 1.:.=.                        ",
"                        =.=.X.:.5.5.@.T T L 2 2 V P O.y.s.g.r.5.,.R % 2 O./ T P L A Z M ~ @.R T T T Y T I P M s R =.[ R Y Y T ' @.                              ",
"                        =.=.=.=.=.=.} R T J & * I ` :.q.y.y.9.:.X.T % 2 ' R P P Y Y M e L ' T P L J F v M G S S / :.,.,.,.,.&.,.=.                              ",
"                    =.=.    =.    =.=.=.^ J & : ' =.:.:.=.:.:.@.^ F @ > L P L P L T u . v T L P Y N g @ $ h K %.;.:.&.,.  &.&.    =.                            ",
"                        =.=.  =.1.      ' R f l X.=.=.=.=.=.=.=.' T d k Y L Y L L Z z y H ` ^ ^ ^ I H k z K I   :.:.=.  =.    =.=.                              ",
"                        =.=.  =.=.      &.$.U U =.=.=.=.=.=.=.=.&.&.T Y Y Y Y Y H c B T } =.=.=.=.:.:.1.,.:.    =.=.    =.    =.=.                              ",
"                                      &.    X.X.      =.=.  =.=.,.&.X.} } } {     ~ R         =.=.=.  :.=.  =.=.          =.=.                                  ",
"                                      &.    =.=.      =.=.    =.&.&.&.,.:.,.&.    :.:.          =.    =.=.    =.          =.=.                                  ",
"                                                    =.    =.=.  =.=.    =.    =.=.    =.                                                                        ",
"                                                    =.    =.=.  =.=.    =.            =.                                                                        ",
"                                                              =.    =.=.                                                                                        ",
"                                                                                                                                                                ",
"                                                                                                                                                                ",
"                                                                                                                                                                ",
"                                                                                                                                                                ",
"                                                                                                                                                                ",
"                                                                                                                                                                ",
"                                                                                                                                                                ",
"                                                                                                                                                                ",
"                                                                                                                                                                ",
"                                                                                                                                                                ",
"                                                                                                                                                                ",
"                                                                                                                                                                ",
"                                                                                                                                                                ",
"                                                                                                                                                                "
};
