/* XPM */
static char *d2c0def662304ecec850b43095492322RKp1jM37TRlRfAhf[] = {
/* columns rows colors chars-per-pixel */
"80 59 127 2 ",
"   c None",
".  c black",
"X  c #010200",
"o  c #010300",
"O  c #010501",
"+  c #020601",
"@  c #020701",
"#  c #020801",
"$  c #030901",
"%  c #030A01",
"&  c #030B01",
"*  c #040F02",
"=  c #051102",
"-  c #061403",
";  c #071703",
":  c #081D04",
">  c #091E04",
",  c #091F04",
"<  c #092004",
"1  c #0C2906",
"2  c #0C2A06",
"3  c #0C2B06",
"4  c #0D2D06",
"5  c #0E3107",
"6  c #0F3407",
"7  c #0F3507",
"8  c #0F3607",
"9  c #103808",
"0  c #103908",
"q  c #113B08",
"w  c #123E09",
"e  c #144509",
"r  c #14460A",
"t  c #18540C",
"y  c #19580C",
"u  c #1B600D",
"i  c #1C610D",
"p  c #1D660E",
"a  c #1E6A0F",
"s  c #1F6B0F",
"d  c #1F6C0F",
"f  c #1F6D0F",
"g  c #1F6E0F",
"h  c #1F6F0F",
"j  c #217410",
"k  c #217510",
"l  c #237A11",
"z  c #237B11",
"x  c #237C11",
"c  c #258012",
"v  c #258112",
"b  c #258212",
"n  c #268713",
"m  c #2A9314",
"M  c #2B9514",
"N  c #2D9E16",
"B  c #2EA016",
"V  c #2EA116",
"C  c #2EA216",
"Z  c #2FA316",
"A  c #30A917",
"S  c #30AA17",
"D  c #31AA17",
"F  c #31AB18",
"G  c #31AE18",
"H  c #32B018",
"J  c #33B319",
"K  c #33B419",
"L  c #34B619",
"P  c #34B719",
"I  c #34B819",
"U  c #36BF1A",
"Y  c #37C11B",
"T  c #38C21B",
"R  c #3ACC1C",
"E  c #3ACD1C",
"W  c #3CD21D",
"Q  c #3DD71E",
"!  c #3ED81E",
"~  c #3ED91E",
"^  c #3EDA1E",
"/  c #3EDB1E",
"(  c #3FDB1E",
")  c #3FDC1E",
"_  c #3FDE1F",
"`  c #3FDF1F",
"'  c #40DF1F",
"]  c #40E01F",
"[  c #40E11F",
"{  c #40E21F",
"}  c #41E31F",
"|  c #41E41F",
" . c #42E51F",
".. c #41E520",
"X. c #41E620",
"o. c #42E720",
"O. c #42E820",
"+. c #42E920",
"@. c #42EA20",
"#. c #43EA20",
"$. c #43EB20",
"%. c #43EC20",
"&. c #43ED20",
"*. c #43EC21",
"=. c #44ED21",
"-. c #44EE21",
";. c #44EF21",
":. c #44F021",
">. c #45F121",
",. c #45F221",
"<. c #45F321",
"1. c #46F421",
"2. c #46F521",
"3. c #46F622",
"4. c #47F722",
"5. c #47F822",
"6. c #47F922",
"7. c #47FA22",
"8. c #48FA22",
"9. c #48FB22",
"0. c #48FC22",
"q. c #48FC23",
"w. c #48FD23",
"e. c #49FE23",
"r. c #49FF23",
"t. c #4AFF23",
"y. c #4AFF24",
/* pixels */
"                                                                                                                                                                ",
"                                                                                                                                                                ",
"                                                                                                                                                                ",
"                                                                                                                                                                ",
"                                                                                                                                                                ",
"                                                                                                                                                                ",
"                                                                                                                                                                ",
"                                                                  . . . . . . . . . . . .                                                                       ",
"                                                                  . . . . . . . . . . . .                                                                       ",
"                                                . . . . . . . . < z c c c c c c c c c c p . . . . . . . . .                                                     ",
"                                                . . . . . . . . < Q -.-.$.$.$.$.*.$.-.<.N . . . . . . . . .                                                     ",
"                                              4 9 q 9 9 9 9 9 9 t ! +.+.$.$.$.o.$.$.o.$.J 9 9 9 9 9 9 9 9 9                                                     ",
"                                          . . f  .[ [ [ [ ' [ ' [ o.+.-.<.<.<.<.>.>.*.+.o._ .._ [ [ [ [ [ W 3 .                                                 ",
"                                          & O k *. .+.+.+.+.+.+.+.+.+.-.<.<.<.<.>.>.*.+.+.+.+.+.+.+.+.+.+.! 7 #                                                 ",
"                                      . & M P R +.+.<.-.-.-.-.<.<.-.-.-.<.<.<.-.>.>.>.>.-.-.<.*.*.<.<.*.o.o.U P i . .                                           ",
"                                      . O J -.+.o.+.<.<.<.<.<.<.<.<.<.<.<.-.<.<.1.>.1.>.<.<.<.<.<.<.<.-.+.+.+.*.j . .                                           ",
"                                    3 f k R +.+.$.-.<.>.>.>.>.1.<.<.<.1.<.-.<.<.6.6.6.6.9.9.1.9.6.6.6.<.<.<.$.$.g . .                                           ",
"                                . . 7 [ *.+. .-.<.<.<.-.1.>.>.>.<.<.<.>.<.<.<.<.e.e.e.e.e.e.e.e.e.e.e.y.e.e.-.+.g . .                                           ",
"                                . . 7 _ *. .*.-.<.<.<.<.<.<.<.>.-.>.<.>.<.>.<.9.e.e.e.e.e.e.e.e.e.e.e.e.e.e.-.<.n 1 1                                           ",
"                                . . 7 _  .-.<.<.-.<.<.-.<.<.<.-.>.>.<.9.e.e.e.e.e.e.e.e.e.e.e.e.e.e.e.e.e.e.e.e.$.' A O .                                       ",
"                                O . 0 ` *.,.,.,.<.-.<.<.<.<.<.<.>.<.<.9.e.e.e.e.e.e.e.e.e.e.e.e.e.e.e.e.e.e.e.e.<.*.J = O                                       ",
"                            . . p S I +. .<.,.,.<.<.<.<.6.9.6.e.e.9.9.e.e.e.e.e.e.e.e.e.e.e.e.e.e.e.e.e.e.e.e.e.<.+.! F Z 5 .                                   ",
"                            . . x ,. .*.X.,.,.,.-.<.<.<.9.e.e.e.e.e.e.e.e.e.y.y.e.e.e.e.e.e.e.e.e.e.y.e.e.e.e.e.<.+.+.*.[ 7 . .                                 ",
"                            . . z +.*. .*.,.,.,.<.<.<.<.9.e.e.e.e.e.e.e.e.! M Z <.e.e.e.e.e.e.e.e.T m J e.e.e.e.<.<.-.+.' 7 . .                                 ",
"                            . . z *.+.<.>.>.>.<.<.<.<.;.9.e.e.e.e.e.e.e.y.V . > [ t.e.e.e.e.e.e.e.a . r 6.0.y.0.y.e.6. .` 7 . .                                 ",
"                            . . z +.+.<.>.;.>.1.<.<.1.>.e.e.e.e.e.e.e.e.y.V . > [ t.e.e.e.e.e.e.e.f . r 6.y.0.y.e.e.6.*.` 0 . .                                 ",
"                            . . z +.+.<.<.<.<.1.<.<.w.y.e.e.e.e.e.e.e.e.y.V . > [ t.e.e.e.e.e.e.e.g . r 6.y.y.0.e.e.6.+._ 7 . .                                 ",
"                            . . z -.$.<.<.<.<.>.<.<.w.y.e.e.e.e.e.e.e.e.y.V . > [ t.e.e.e.e.e.e.t.s . r 6.0.0.y.e.e.0.+._ 7 . .                                 ",
"                            . . z $.$.>.>.>.1.>.<.<.e.e.e.e.e.e.e.e.e.e.y.V . > [ t.e.e.e.e.e.e.t.s . r 6.0.y.0.y.w.0. ._ 7 . .                                 ",
"                            . . z $.$.>.>.>.>.>.<.<.e.e.e.e.e.e.e.e.e.e.y.V . > [ t.e.e.e.e.e.e.t.s . r 6.y.0.y.0.0.0.*._ 7 . .                                 ",
"                            . . z *.$.>.>.>.1.1.<.<.y.e.e.e.e.e.e.e.e.e.y.N . > [ t.e.e.e.e.e.e.e.s . r 6.0.y.0.y.0.6.+._ 7 . .                                 ",
"                            . . z $.$.>.1.>.>.>.<.<.y.y.e.e.e.e.e.e.e.e.y.Z . > [ t.e.e.e.e.e.e.t.s . r 6.y.0.y.0.y.0.+._ 7 . .                                 ",
"                            . . z $.$.>.>.>.-.<.<.<.e.e.e.e.e.e.e.e.e.e.y.A ; 7 | e.e.e.e.e.e.e.e.x = y 6.e.e.e.e.e.6. .` 7 . .                                 ",
"                            . . z $.$.-.>.>.>.<.<.<.e.e.e.e.e.e.e.e.e.e.e.<.' ' 0.y.e.e.e.e.e.e.e.+.!  .e.e.e.e.e.e.6.*.` 0 . .                                 ",
"                            . . z $.$.<.1.<.<.<.<.1.y.e.e.e.e.e.e.e.e.e.e.e.e.t.y.0.y.0.e.e.e.e.e.e.e.e.e.e.e.e.e.e.6.+._ 7 . .                                 ",
"                            . . z $.$.<.<.<.<.<.<.<.<.9.e.e.e.e.e.e.e.e.e.e.e.e.0.y.0.y.e.e.e.e.e.e.e.e.e.e.e.e.e.e.0.+._ 7 . .                                 ",
"                            . . z *.$.>.>.>.>.<.<.<.<.-.e.y.e.e.e.e.e.e.e.e.e.e.y.0.y.0.y.0.y.0.e.e.e.e.e.e.e.e.y.w.0. ._ 7 . .                                 ",
"                            . . z $.$.>.>.-.>.1.<.<.<.<.1.9.e.e.e.e.e.e.e.e.e.e.0.y.0.y.0.y.0.y.e.e.e.e.e.e.e.e.0.0.0.*._ 7 . .                                 ",
"                            . . l *.$.>.<.<.<.<.>.>.<.<.<.<.1.e.e.e.e.e.e.e.e.e.y.0.y.0.y.0.y.0.e.e.e.e.e.e.e.e.y.0.6.+._ 7 . .                                 ",
"                            . . l *.$.>.<.<.<.1.>.>.>.-.<.<.9.e.e.e.e.e.e.e.e.e.0.y.0.y.0.y.0.y.e.e.e.e.e.e.e.e.0.y.0.+._ 7 . .                                 ",
"                            . . l *.$.>.>.>.>.>.-.<.<.-.<.<.<.>.1.e.e.e.e.e.e.e.e.e.e.e.y.0.y.0.e.e.e.e.e.e.e.e.y.0.6.+.` 8 . .                                 ",
"                            . . l *.$.>.>.>.>.1.<.<.<.<.<.<.<.<.1.e.e.e.e.e.e.e.e.e.e.e.0.y.0.y.e.e.e.e.e.e.e.e.0.y.0.+._ 8 . .                                 ",
"                            . . l -.$.$.-.>.>.1.<.<.<.<.-.<.<.<.<.9.9.1.<.e.e.e.e.e.e.e.y.0.w.0.e.e.e.e.e.e.e.e.6.<.<.+._ 8 . .                                 ",
"                            . . l -.$.o.+.>.>.>.-.<.<.<.<.<.-.<.<.<.<.<.<.6.e.e.e.e.e.e.0.y.w.0.e.e.e.e.e.e.e.e.<.+.+.+...8 . .                                 ",
"                            . . u I Y o.+.-.>.;.<.,.*.,.,.*.,.<.-.-.<.-.-.<.6.6.6.0.0.0.6.6.0.0.6.0.0.6.0.6.6.0.<.+._ I F 4 . .                                 ",
"                            . . + # q ' +.+.+.+.+.+.+.+.+.+.+.+.+.+.+.+.+.+.*.+.*. .*. .*. .*. .*. .@.@.+.+.*. .+. .P ; # . . .                                 ",
"                            . . . . 8 Q _ ..` ..` [ [ [ ` ` [ [ ..' ' [ [ [ [ [ ` ` [ ` ` ` ` ` ` ` ` ` [ [ [ [ [  .F # . . . .                                 ",
"                                      9 9 9 9 8 q 9 9 9 9 9 9 9 9 9 9 9 9 9 9 9 q 0 q 0 q q q 0 q 0 0 q 9 9 9 9 9 9 7                                           ",
"                                      . . . . . . . . . . . . . . . . . . . . . . . . . . . . . . . . . . . . . . . .                                           ",
"                                      . . . . . . . . . . . . . . . . . . . . . . . . . . . . . . . . . . . . . . .                                             ",
"                                                                                                                                                                ",
"                                                                                                                                                                ",
"                                                                                                                                                                ",
"                                                                                                                                                                ",
"                                                                                                                                                                ",
"                                                                                                                                                                ",
"                                                                                                                                                                ",
"                                                                                                                                                                ",
"                                                                                                                                                                "
};
